<?xml version="1.0" encoding="utf-8"?>
<!-- Generator: Adobe Illustrator 21.0.0, SVG Export Plug-In . SVG Version: 6.00 Build 0)  -->
<svg version="1.1" xmlns="http://www.w3.org/2000/svg" xmlns:xlink="http://www.w3.org/1999/xlink" x="0px" y="0px"
	 viewBox="0 0 124.6 35.4" style="enable-background:new 0 0 124.6 35.4;" xml:space="preserve">
<style type="text/css">
	.st0{fill-rule:evenodd;clip-rule:evenodd;fill:#1F4194;}
	.st1{fill:#1F4194;}
</style>
<g id="Layer_1">
</g>
<g id="Layer_1_1_">
	<g>
		<g>
			<path class="st0" d="M55.1,20.4c-3.4,0-5.2-2.2-6.6-4c-1.2-1.6-2.1-2.7-4-2.7c-1.9,0-2.8,1.1-4,2.7c-1.4,1.8-3.2,4-6.6,4
				c-3.4,0-5.2-2.2-6.6-4c-1.2-1.6-2.1-2.7-4-2.7c-1.9,0-2.8,1.1-4,2.7c-1.4,1.8-3.2,4-6.6,4c-3.4,0-5.2-2.2-6.6-4
				c-1.2-1.6-2.1-2.7-4-2.7c-1.1,0-1.9-1.2-1.9-2.7c0-1.5,0.9-2.7,1.9-2.7c3.4,0,5.2,2.2,6.6,4c1.2,1.6,2.1,2.7,4,2.7
				c1.9,0,2.8-1.1,4-2.7c1.4-1.8,3.2-4,6.6-4c3.4,0,5.2,2.2,6.6,4c1.2,1.6,2.1,2.7,4,2.7c1.9,0,2.8-1.1,4-2.7c1.4-1.8,3.2-4,6.6-4
				c3.4,0,5.2,2.2,6.6,4c1.2,1.6,2.1,2.7,4,2.7c1.9,0,2.8-1.1,4-2.7c1.4-1.8,3.2-4,6.6-4c1.1,0,1.9,1.2,1.9,2.7
				c0,1.5-0.9,2.7-1.9,2.7c-1.9,0-2.8,1.1-4,2.7C60.2,18.1,58.4,20.4,55.1,20.4z"/>
			<path class="st0" d="M55.1,31.1c-3.2,0-4.9-2.1-6.3-3.9c-1.3-1.6-2.3-2.8-4.4-2.8c-2.1,0-3.1,1.3-4.4,2.8
				c-1.4,1.7-3.1,3.9-6.3,3.9c-3.2,0-4.9-2.1-6.3-3.9c-1.3-1.6-2.2-2.8-4.4-2.8c-2.1,0-3.1,1.3-4.4,2.8c-1.4,1.7-3.1,3.9-6.3,3.9
				c-3.2,0-4.9-2.1-6.3-3.9C5,25.7,4,24.4,1.9,24.4c-0.8,0-1.4-0.9-1.4-2c0-1.1,0.6-2,1.4-2c3.2,0,4.9,2.1,6.3,3.9
				c1.3,1.6,2.2,2.8,4.4,2.8c2.1,0,3.1-1.3,4.4-2.8c1.4-1.7,3.1-3.9,6.3-3.9c3.2,0,4.9,2.1,6.3,3.9c1.3,1.6,2.2,2.8,4.4,2.8
				c2.1,0,3.1-1.3,4.4-2.8c1.4-1.7,3.1-3.9,6.3-3.9c3.2,0,4.9,2.1,6.3,3.9c1.3,1.6,2.3,2.8,4.4,2.8c2.1,0,3.1-1.3,4.4-2.8
				c1.4-1.7,3.1-3.9,6.3-3.9c0.8,0,1.4,0.9,1.4,2c0,1.1-0.6,2-1.4,2c-2.1,0-3.1,1.3-4.4,2.8C60,29,58.3,31.1,55.1,31.1z"/>
		</g>
		<g>
			<g>
				<path class="st1" d="M83.2,14.6c-0.1,0.4-0.6,0.7-1.2,0.7c-0.6,0-1.1-0.3-1.3-0.7l-2-5.1l-2,5.1c-0.1,0.4-0.6,0.7-1.2,0.7
					c-0.6,0-1.1-0.3-1.3-0.7l-3.1-8.1C71,5.9,71.3,5.3,72,5.1c0.6-0.2,1.3,0,1.5,0.5l2.1,5.8l2.1-5.8C77.8,5.2,78.3,5,78.8,5
					c0.6,0,0.9,0.2,1.1,0.6l2.2,5.8l2.1-5.8c0.2-0.5,0.9-0.8,1.5-0.5c0.6,0.2,1,0.8,0.8,1.4L83.2,14.6z"/>
				<path class="st1" d="M95,13.7L95,13.7c-0.9,1.2-2,1.8-3.4,1.8c-1.4,0-2.6-0.5-3.6-1.5c-1-1-1.5-2.3-1.5-3.8
					c0-1.5,0.5-2.7,1.5-3.8c1-1,2.2-1.5,3.6-1.5c1.3,0,2.5,0.6,3.3,1.7h0V6c0-0.6,0.6-1,1.2-1c0.7,0,1.2,0.5,1.2,1v8.2
					c0,0.6-0.6,1-1.2,1c-0.7,0-1.2-0.5-1.2-1V13.7z M94.2,8c-0.6-0.6-1.2-0.9-2.1-0.9S90.6,7.5,90.1,8c-0.6,0.6-0.8,1.3-0.8,2.1
					s0.3,1.5,0.8,2.1c0.6,0.6,1.2,0.9,2.1,0.9s1.5-0.3,2.1-0.9c0.6-0.6,0.8-1.3,0.8-2.1S94.8,8.6,94.2,8z"/>
				<path class="st1" d="M100,5.1V3.7c0-0.6,0.6-1,1.2-1s1.2,0.5,1.2,1v1.4h0.9c0.5,0,0.9,0.5,0.9,1.1s-0.4,1.1-0.9,1.1h-0.9v4.9
					c0,0.3,0.3,0.6,0.6,0.6h0.3c0.5,0,0.9,0.5,0.9,1.2s-0.4,1.2-0.9,1.2H103c-1.9,0-3-0.9-3-2.8V7.3h-0.3c-0.5,0-0.9-0.5-0.9-1.1
					s0.4-1.1,0.9-1.1H100z"/>
				<path class="st1" d="M114.8,11.2h-6.9c0.4,1.2,1.6,2,2.8,2c0.9,0,1.9-0.3,2.5-0.9c0.3-0.4,1-0.4,1.4,0c0.4,0.4,0.6,1.1,0.2,1.4
					c-1,1-2.6,1.6-4.2,1.6c-1.5,0-2.8-0.5-3.9-1.5c-1.1-1-1.6-2.3-1.6-3.8c0-1.5,0.5-2.7,1.6-3.8s2.4-1.5,3.9-1.5
					c1.5,0,2.7,0.5,3.8,1.5s1.6,2.3,1.6,3.8C116,10.7,115.5,11.2,114.8,11.2z M113.4,9.1c-0.4-1.2-1.5-2-2.7-2c-1.2,0-2.3,0.8-2.7,2
					H113.4z"/>
				<path class="st1" d="M123.5,4.9c0.5,0.1,0.9,0.6,0.9,1.1c0,0.6-0.5,1.2-1.2,1.2c-0.1,0-0.3,0-0.7-0.1c-0.7,0-1.2,0.2-1.7,0.7
					c-0.4,0.5-0.7,1.1-0.7,1.9v4.5c0,0.6-0.6,1-1.2,1c-0.7,0-1.2-0.5-1.2-1V6c0-0.5,0.5-1,1.1-1c0.6,0,1.1,0.4,1.1,1v0.6h0
					c0.7-1.1,1.5-1.7,2.6-1.7C122.9,4.8,123.2,4.9,123.5,4.9z"/>
			</g>
			<g>
				<path class="st1" d="M79.9,30L79.9,30c-0.6,1-1.9,1.9-3.5,1.9c-1.4,0-2.6-0.5-3.6-1.5c-1-1-1.5-2.3-1.5-3.8
					c0-1.5,0.5-2.7,1.5-3.8c1-1,2.2-1.5,3.6-1.5c1.3,0,2.5,0.6,3.3,1.7h0v-3.5c0-0.6,0.6-1,1.2-1s1.2,0.5,1.2,1v11.2
					c0,0.6-0.5,1-1.2,1c-0.7,0-1.2-0.4-1.2-1V30z M79,24.5c-0.6-0.6-1.2-0.9-2.1-0.9s-1.5,0.3-2.1,0.9c-0.6,0.6-0.8,1.3-0.8,2.1
					s0.3,1.5,0.8,2.1c0.6,0.6,1.3,0.9,2.1,0.9s1.5-0.3,2.1-0.9c0.6-0.6,0.8-1.3,0.8-2.1S79.6,25.1,79,24.5z"/>
				<path class="st1" d="M92.4,30.2L92.4,30.2c-0.9,1.2-2,1.8-3.4,1.8c-1.4,0-2.6-0.5-3.6-1.5c-1-1-1.5-2.3-1.5-3.8
					c0-1.5,0.5-2.7,1.5-3.8c1-1,2.2-1.5,3.6-1.5c1.3,0,2.5,0.6,3.3,1.7h0v-0.6c0-0.6,0.6-1,1.2-1c0.7,0,1.2,0.5,1.2,1v8.2
					c0,0.6-0.6,1-1.2,1c-0.7,0-1.2-0.5-1.2-1V30.2z M91.5,24.5c-0.6-0.6-1.2-0.9-2.1-0.9S88,24,87.4,24.5c-0.6,0.6-0.8,1.3-0.8,2.1
					s0.3,1.5,0.8,2.1c0.6,0.6,1.2,0.9,2.1,0.9s1.5-0.3,2.1-0.9c0.6-0.6,0.8-1.3,0.8-2.1S92.1,25.1,91.5,24.5z"/>
				<path class="st1" d="M99,33.2l1-2.3l-3.6-7.8c-0.3-0.5,0.1-1.2,0.7-1.5c0.6-0.3,1.3-0.1,1.5,0.4l2.8,5.9l2.8-5.9
					c0.3-0.5,0.9-0.7,1.5-0.4c0.6,0.3,0.9,0.9,0.7,1.5l-5.2,11.1c-0.3,0.5-0.9,0.7-1.5,0.4C99,34.3,98.7,33.7,99,33.2z"/>
			</g>
		</g>
	</g>
</g>
<g id="Layer_1_2_">
</g>
</svg>
